<svg enable-background="new 0 0 24 24" height="512" viewBox="0 0 24 24" width="512" xmlns="http://www.w3.org/2000/svg"><path d="m20.854 19.811-3.515-4.761h1.911c.285 0 .545-.162.672-.417.126-.256.097-.561-.076-.788l-3.655-4.795h1.059c.28 0 .536-.156.665-.404s.11-.547-.051-.776l-5.25-7.5c-.28-.4-.948-.4-1.229 0l-5.25 7.5c-.161.229-.18.528-.051.776.13.248.386.404.666.404h1.059l-3.656 4.795c-.173.227-.202.532-.076.788.127.255.387.417.672.417h1.911l-3.515 4.761c-.168.228-.193.531-.066.783.127.253.386.412.669.412h16.5c.283 0 .542-.159.669-.412.13-.253.104-.556-.063-.783z"/></svg>